<svg version="1.1" id="Layer_1" xmlns="http://www.w3.org/2000/svg" xmlns:xlink="http://www.w3.org/1999/xlink" x="0px" y="0px"
	 width="100%" viewBox="0 0 432 432" enable-background="new 0 0 432 432" xml:space="preserve">
<path fill="#000000" opacity="1.000000" stroke="none" 
	d="
M180.198242,344.003723 
	C178.393982,343.964386 177.053543,344.006470 175.731369,343.870667 
	C170.255432,343.308197 167.660583,341.007599 167.703537,336.835419 
	C167.748840,332.435181 170.757782,329.804169 176.184845,329.743286 
	C184.516220,329.649841 192.849411,329.721924 201.181824,329.716095 
	C208.528183,329.710968 208.501877,329.705933 208.616226,322.293945 
	C209.060883,293.475372 209.518738,264.656952 209.981094,235.838654 
	C210.550278,200.361237 211.173584,164.884583 211.679596,129.406265 
	C211.861435,116.656662 203.917160,108.712639 191.081558,108.304131 
	C183.302872,108.056564 175.781921,109.430000 168.587418,112.160034 
	C155.356644,117.180626 142.210007,122.429825 129.104263,127.770111 
	C122.952805,130.276703 116.458305,131.653137 109.667847,133.743301 
	C113.206490,143.669357 116.490265,153.240875 120.021851,162.720047 
	C131.181656,192.674271 141.997589,222.768845 153.881882,252.434433 
	C158.186310,263.179169 155.466812,271.268127 148.771866,278.969025 
	C126.074104,305.077118 78.712387,305.856049 54.921127,280.674805 
	C52.624424,278.243927 50.717018,275.538879 48.955364,272.686371 
	C45.262680,266.707123 44.979172,260.898804 47.663815,254.208435 
	C62.732903,216.654755 77.472519,178.968857 92.309692,141.322220 
	C93.093285,139.333984 93.741173,137.292267 94.433617,135.328293 
	C92.207466,133.043839 89.265625,133.347809 86.930054,132.159332 
	C82.801483,130.058472 80.689568,126.202499 81.980034,122.381294 
	C83.426292,118.098732 86.910545,116.967003 90.819321,117.795898 
	C103.503273,120.485657 115.251808,117.195587 126.805763,112.559143 
	C137.006836,108.465591 147.051468,103.969093 157.325348,100.072899 
	C175.221954,93.285927 193.312347,88.577065 212.062881,98.352333 
	C213.308105,93.688202 212.798355,89.732254 210.636917,86.008118 
	C206.550980,78.968048 207.572388,72.294716 212.007904,65.875641 
	C214.808640,61.822422 217.013718,57.300213 221.371506,53.505634 
	C225.950211,59.764301 230.713104,65.466225 233.157852,72.651718 
	C234.699509,77.182854 233.686783,81.493126 231.697128,85.690788 
	C229.897369,89.487785 228.639297,93.406837 229.818924,98.142235 
	C234.450226,97.236229 238.324661,94.469063 242.898178,93.648041 
	C253.707245,91.707611 264.090637,93.410675 274.418518,96.398239 
	C289.512817,100.764618 303.465363,108.029388 318.095093,113.577728 
	C328.830322,117.649055 339.653168,120.432487 351.226349,117.608231 
	C355.424683,116.583679 358.491516,118.219276 359.829254,122.373062 
	C361.159851,126.504616 359.477264,129.670364 355.768463,131.487671 
	C353.130249,132.780411 350.188660,133.453979 347.430511,134.387619 
	C346.670227,136.280670 347.701874,137.732727 348.281281,139.238663 
	C362.928650,177.308289 377.320312,215.480118 392.431610,253.364853 
	C396.393677,263.297913 393.891876,270.973969 387.704071,278.106537 
	C373.356415,294.644897 354.485535,300.274933 333.336304,298.774292 
	C317.754242,297.668671 303.965424,291.858368 292.867035,280.399384 
	C289.072968,276.482025 286.523834,271.877716 284.380035,266.966248 
	C282.770172,263.277954 283.798218,259.782990 285.136353,256.313507 
	C292.865997,236.272949 300.615234,216.239975 308.332062,196.194489 
	C315.809967,176.769608 323.261749,157.334656 330.703400,137.895859 
	C331.108765,136.837021 331.315521,135.702133 331.614014,134.605255 
	C331.124237,134.145050 330.824951,133.621506 330.416992,133.515289 
	C310.661682,128.371475 292.689362,118.510384 273.451294,112.004135 
	C264.029053,108.817574 254.455887,106.774109 244.564178,109.368416 
	C235.403595,111.770988 230.245148,118.550514 230.374969,128.045273 
	C230.989899,173.022507 231.389938,218.006363 232.536133,262.970795 
	C233.003296,281.296722 233.074371,299.617035 233.369263,317.939117 
	C233.558899,329.721588 233.553101,329.717590 245.486237,329.718689 
	C252.318726,329.719330 259.157623,329.555847 265.981781,329.799072 
	C271.984436,330.013031 275.412506,334.689209 273.397827,339.412231 
	C272.489563,341.541473 270.998230,343.064514 268.616730,343.322998 
	C265.808136,343.627869 262.981628,343.939880 260.162231,343.945862 
	C233.665054,344.001984 207.167725,343.993286 180.198242,344.003723 
M321.744080,193.122971 
	C313.961884,213.352081 306.179688,233.581207 298.435364,253.711823 
	C300.766602,254.994217 302.468140,254.640350 304.099457,254.642410 
	C327.567139,254.671875 351.034851,254.672867 374.502563,254.660583 
	C380.195892,254.657608 380.417053,254.323166 378.379608,249.034164 
	C367.500702,220.793518 356.662048,192.537170 345.678955,164.337051 
	C343.727112,159.325516 342.389343,154.015121 338.939789,148.373367 
	C333.079529,163.640793 327.559235,178.022568 321.744080,193.122971 
M135.567657,236.822556 
	C124.588867,207.608505 113.610085,178.394455 102.631294,149.180405 
	C102.242279,149.179306 101.853271,149.178223 101.464256,149.177139 
	C87.786774,184.051620 74.109291,218.926102 60.314804,254.098938 
	C87.919838,254.098938 114.579147,254.098938 141.936478,254.098938 
	C139.703964,248.108170 137.741013,242.840744 135.567657,236.822556 
M86.724739,285.754120 
	C108.883102,291.446503 139.422119,280.927460 141.825302,266.642212 
	C114.343918,266.642212 86.887794,266.642212 58.648521,266.642212 
	C65.591881,277.039215 74.906967,282.533356 86.724739,285.754120 
M370.020752,278.551483 
	C374.474609,275.459106 378.657227,272.126801 381.213806,266.682007 
	C352.989319,266.682007 325.491943,266.682007 297.808289,266.682007 
	C304.960907,283.401245 340.792725,297.144806 370.020752,278.551483 
z"/>
<path fill="#000000" opacity="1.000000" stroke="none" 
	d="
M147.027603,349.869995 
	C198.176163,349.866486 248.829666,349.861725 299.483185,349.863159 
	C301.810242,349.863220 304.160095,349.700928 306.399536,350.574738 
	C309.489441,351.780396 311.387329,353.896271 311.262573,357.352722 
	C311.137360,360.822906 309.215881,362.937683 305.849182,363.536682 
	C303.735168,363.912781 301.558228,364.091858 299.409424,364.092896 
	C247.422882,364.118164 195.436325,364.109009 143.449783,364.099060 
	C140.623047,364.098511 137.773682,364.286560 135.027863,363.351471 
	C132.050201,362.337341 130.128998,360.285980 130.098846,357.138672 
	C130.067123,353.826294 131.837769,351.487854 135.105850,350.466675 
	C138.862640,349.292877 142.723694,350.071503 147.027603,349.869995 
z"/>
<path fill="#000000" opacity="1.000000" stroke="none" 
	d="
M126.288971,406.394135 
	C124.281708,398.964264 122.408653,391.897156 120.615120,384.809937 
	C120.166756,383.038239 118.687706,380.709503 122.030190,380.146881 
	C124.628510,379.709534 125.916870,381.030823 126.477234,383.635925 
	C127.380463,387.835052 128.116806,392.113617 130.568237,396.881714 
	C131.718674,392.122223 132.844086,388.102753 133.620972,384.017029 
	C134.098770,381.504242 135.148911,380.048615 137.813232,380.075256 
	C140.373230,380.100861 141.047714,381.754761 141.491089,383.938019 
	C142.343475,388.135284 143.434967,392.284027 145.306229,396.526581 
	C146.412216,392.285370 147.664322,388.075104 148.572342,383.791901 
	C149.169022,380.977325 150.545792,379.445923 153.370026,380.254669 
	C156.437164,381.133026 154.850494,383.445801 154.379639,385.209259 
	C152.664597,391.632477 150.883728,398.038635 149.059418,404.431763 
	C148.467773,406.505127 147.928009,408.535126 144.913849,408.491577 
	C141.760559,408.446045 141.121719,406.543121 140.581482,404.092651 
	C139.688553,400.042358 138.619003,396.031067 137.262421,390.540314 
	C135.948105,396.098511 135.028580,400.348694 133.926407,404.550934 
	C132.721069,409.146484 130.670181,409.705627 126.288971,406.394135 
z"/>
<path fill="#000000" opacity="1.000000" stroke="none" 
	d="
M69.928040,393.009155 
	C69.898125,390.018860 69.829536,387.524323 69.859428,385.030945 
	C69.882401,383.114258 69.268394,380.793640 72.033943,380.155609 
	C74.501495,379.586334 76.656540,380.116211 78.081253,382.453003 
	C81.084892,387.379486 84.097656,392.300385 87.744034,398.266418 
	C87.098236,392.837769 87.282234,388.589203 87.587875,384.337372 
	C87.735527,382.283417 87.587006,380.071228 90.536209,380.202515 
	C93.420776,380.330933 93.270653,382.586334 93.274132,384.602417 
	C93.285019,390.920990 93.312630,397.240173 93.234146,403.557861 
	C93.212776,405.277222 93.771385,407.473938 91.313828,408.129425 
	C88.795700,408.801086 86.883568,408.026520 85.462158,405.631409 
	C82.582764,400.779388 79.493362,396.052032 76.083450,390.625427 
	C76.083450,395.094910 76.197037,398.922913 76.040443,402.739807 
	C75.947922,404.995148 77.008629,408.345276 72.943375,408.187103 
	C69.048561,408.035614 70.129181,404.757996 69.999054,402.482208 
	C69.828453,399.498383 69.941002,396.498413 69.928040,393.009155 
z"/>
<path fill="#000000" opacity="1.000000" stroke="none" 
	d="
M318.633423,398.957153 
	C318.638702,393.800262 318.647766,389.137573 318.665741,384.474884 
	C318.672882,382.620972 318.548859,380.693878 321.056763,380.229828 
	C323.221527,379.829254 325.010406,380.305420 326.232971,382.281189 
	C329.114838,386.938507 332.008423,391.588562 335.787415,396.156738 
	C335.787415,392.108032 335.790955,388.059296 335.785919,384.010559 
	C335.783356,381.929199 336.418091,380.350922 338.850525,380.389557 
	C341.182037,380.426605 341.341888,382.119507 341.385162,383.887207 
	C341.544067,390.374512 341.789703,396.860748 341.848541,403.348755 
	C341.865356,405.207733 342.396973,407.596588 339.650787,408.260864 
	C337.037109,408.893127 335.186066,407.784851 333.814362,405.537140 
	C330.973145,400.881500 328.053253,396.273834 324.286163,391.781464 
	C324.286163,395.855560 324.321686,399.930115 324.270905,404.003571 
	C324.246246,405.982880 324.463959,408.274475 321.439758,408.250122 
	C318.400574,408.225647 318.763184,405.899292 318.681335,403.946991 
	C318.618591,402.450500 318.650787,400.950043 318.633423,398.957153 
z"/>
<path fill="#000000" opacity="1.000000" stroke="none" 
	d="
M307.863007,381.842834 
	C313.289886,385.826172 314.597534,391.124084 313.843231,397.039612 
	C313.166626,402.345764 310.543701,406.404907 305.247223,408.247040 
	C299.403503,410.279572 293.259674,408.383240 289.692993,403.526550 
	C285.899139,398.360504 285.910858,390.898987 289.721710,385.278503 
	C292.877167,380.624634 298.715668,378.787659 304.742126,380.587189 
	C305.689850,380.870209 306.594086,381.298950 307.863007,381.842834 
M301.960327,385.312012 
	C294.629150,385.291016 290.994385,392.158417 294.425720,399.485260 
	C295.661713,402.124420 297.511566,403.782471 300.569397,403.733154 
	C303.598206,403.684265 305.460083,402.022491 306.675812,399.386322 
	C309.129517,394.065582 307.748749,389.184296 301.960327,385.312012 
z"/>
<path fill="#000000" opacity="1.000000" stroke="none" 
	d="
M211.615936,409.004761 
	C203.856613,408.828247 199.746063,406.182129 197.588440,400.310089 
	C195.463547,394.527191 197.062378,386.887878 201.179474,383.151886 
	C205.173737,379.527405 211.058273,378.712952 216.135971,381.081818 
	C221.416107,383.545135 223.928162,389.038177 223.318344,396.787354 
	C222.812317,403.217499 219.593597,406.674927 211.615936,409.004761 
M206.147827,402.433258 
	C211.667755,404.923645 215.222092,403.582672 216.660812,398.482727 
	C217.453247,395.673767 217.443207,392.836426 216.505310,390.116302 
	C215.448257,387.050537 213.438217,384.948059 209.855560,385.176483 
	C206.414291,385.395905 204.196121,387.413818 203.492996,390.582336 
	C202.614120,394.542786 202.579453,398.562225 206.147827,402.433258 
z"/>
<path fill="#000000" opacity="1.000000" stroke="none" 
	d="
M192.201843,386.252045 
	C192.196167,392.539337 192.196167,398.354950 192.170074,404.170441 
	C192.160721,406.255249 192.053329,408.277557 189.132294,408.263947 
	C186.336273,408.250916 185.978790,406.368378 185.910110,404.224854 
	C185.878189,403.228485 185.749954,402.218109 185.863708,401.237091 
	C186.344284,397.092316 184.186722,396.257538 180.516739,396.247070 
	C176.699158,396.236237 175.188629,397.441864 175.183914,401.419067 
	C175.181030,403.856415 177.236130,408.415375 172.111008,408.109894 
	C167.519623,407.836212 169.383270,403.612396 169.259125,400.983002 
	C169.001007,395.515869 169.095840,390.031464 169.074844,384.554047 
	C169.065918,382.226685 169.432480,380.071564 172.488647,380.183624 
	C175.356750,380.288727 175.421494,382.449829 175.298431,384.496613 
	C175.066345,388.356750 175.278320,391.350891 180.620361,391.077606 
	C184.390915,390.884705 186.160889,389.899414 185.888535,385.896057 
	C185.753983,383.918304 184.988464,381.125000 187.966751,380.479034 
	C192.549194,379.485199 192.065079,382.977814 192.201843,386.252045 
z"/>
<path fill="#000000" opacity="1.000000" stroke="none" 
	d="
M247.253204,386.331390 
	C247.314774,386.908844 247.390427,387.107910 247.325592,387.235596 
	C243.858078,394.063660 246.185776,400.709717 248.563980,407.374786 
	C244.706696,409.393005 242.486893,408.746887 241.383469,404.937103 
	C240.877640,403.190735 240.358139,401.428528 239.615494,399.776611 
	C238.969055,398.338745 237.713852,397.356476 236.040329,397.594452 
	C233.923676,397.895447 234.327713,399.711884 234.249329,401.135712 
	C234.167313,402.626221 234.202866,404.123138 234.183258,405.617188 
	C234.159470,407.428589 233.229614,408.368652 231.429413,408.439056 
	C229.782578,408.503510 228.197021,408.073914 228.165176,406.193848 
	C228.033112,398.398499 228.039902,390.599945 228.108780,382.803589 
	C228.114639,382.142792 228.818512,381.288788 229.432892,380.864410 
	C234.098999,377.641388 244.373001,380.600342 247.253204,386.331390 
M240.684784,386.614288 
	C238.894440,385.004639 236.695374,384.363464 234.959274,386.094360 
	C233.506439,387.542786 233.791931,389.912994 234.785767,391.655365 
	C235.646698,393.164764 237.461319,392.870667 238.822998,392.302155 
	C241.045090,391.374420 242.289322,389.782257 240.684784,386.614288 
z"/>
<path fill="#000000" opacity="1.000000" stroke="none" 
	d="
M276.849976,379.942383 
	C278.480804,379.970795 279.652832,379.909149 280.804901,380.033173 
	C284.934753,380.477783 285.731598,381.980377 283.413757,385.605042 
	C279.942474,391.033478 276.239899,396.314056 272.368408,402.053741 
	C275.438171,403.872742 278.401794,403.544922 281.304901,403.527130 
	C282.969727,403.516907 284.872162,403.250092 284.960571,405.720703 
	C285.043732,408.043945 283.323883,408.329620 281.562134,408.345917 
	C277.075897,408.387421 272.588440,408.440186 268.102905,408.381531 
	C263.037079,408.315308 262.207306,406.770538 265.079834,402.329102 
	C267.964691,397.868652 271.129517,393.589661 274.150482,389.216522 
	C274.791321,388.288788 275.340515,387.297760 276.561890,385.311371 
	C273.035004,385.311371 270.306244,385.321655 267.577667,385.307465 
	C265.994690,385.299225 264.469421,385.066223 264.311584,383.072235 
	C264.140717,380.914307 265.559784,380.096252 267.411835,380.025574 
	C270.398682,379.911713 273.391632,379.958527 276.849976,379.942383 
z"/>
<path fill="#000000" opacity="1.000000" stroke="none" 
	d="
M105.323196,400.787476 
	C105.548958,403.497314 107.219772,403.603668 108.965942,403.617157 
	C110.794319,403.631317 112.625221,403.612457 114.450043,403.705566 
	C115.967827,403.783051 116.982132,404.509033 116.889656,406.199371 
	C116.810722,407.642273 115.846428,408.248077 114.560661,408.260864 
	C110.240150,408.303955 105.917038,408.348541 101.598732,408.240509 
	C99.422356,408.186096 98.957336,406.456024 98.955162,404.699097 
	C98.946526,397.716217 98.983932,390.732910 99.065834,383.750488 
	C99.086372,381.999054 99.565933,380.187714 101.682205,380.127838 
	C105.824234,380.010742 109.978622,380.088013 114.118958,380.278778 
	C115.661720,380.349884 116.332520,381.538910 116.173515,383.126587 
	C116.031647,384.543030 115.176865,385.174255 113.875252,385.245544 
	C112.216560,385.336334 110.551865,385.382019 108.891197,385.355713 
	C106.779350,385.322235 105.349243,385.891449 105.314888,388.385406 
	C105.282326,390.749390 106.427589,391.411682 108.635262,391.716675 
	C111.061943,392.051941 115.426178,389.827576 115.372078,394.159912 
	C115.324272,397.988220 111.145607,396.069916 108.833443,396.238770 
	C105.898079,396.453125 105.068336,397.799683 105.323196,400.787476 
z"/>
<path fill="#000000" opacity="1.000000" stroke="none" 
	d="
M355.896606,385.438629 
	C352.362762,387.528839 353.528839,389.271545 355.981171,390.689240 
	C357.839539,391.763641 359.940826,392.416321 361.805634,393.481445 
	C364.886688,395.241272 365.951965,398.122314 365.620209,401.525452 
	C365.296448,404.846558 363.388336,407.045715 360.268066,408.047821 
	C357.073914,409.073639 353.847961,409.475739 350.477570,408.493286 
	C347.066132,407.498779 346.038544,405.860474 348.248535,402.707672 
	C350.618317,402.027679 352.615173,403.956573 354.971405,403.747375 
	C356.902863,403.575897 358.812775,403.405273 359.272125,401.205475 
	C359.679626,399.253937 358.182739,398.206055 356.610352,397.479675 
	C355.406891,396.923706 354.120453,396.549652 352.904877,396.017181 
	C349.269379,394.424713 346.672211,391.868073 347.029633,387.675537 
	C347.403168,383.293915 350.527130,381.091064 354.503296,380.016815 
	C356.455414,379.489349 358.492828,379.496063 360.415344,380.094086 
	C362.208252,380.651825 364.655914,380.817963 364.031952,383.789246 
	C363.455505,386.534119 361.527191,385.727081 359.718506,385.438568 
	C358.586487,385.257996 357.408173,385.367920 355.896606,385.438629 
z"/>
<path fill="#000000" opacity="1.000000" stroke="none" 
	d="
M259.162231,393.020477 
	C259.135895,397.155609 259.132385,400.797333 259.074005,404.438202 
	C259.039062,406.619171 258.521912,408.381989 255.737885,408.309357 
	C253.245041,408.244293 252.748535,406.703217 252.747482,404.673950 
	C252.743881,397.721893 252.739105,390.769836 252.736710,383.817780 
	C252.736008,381.799988 253.234634,380.133087 255.687973,380.115143 
	C257.973358,380.098419 258.953339,381.508911 259.029175,383.591125 
	C259.137543,386.567352 259.123627,389.547974 259.162231,393.020477 
z"/>
</svg>